<?xml version="1.0" encoding="UTF-8"?>
<svg id="Layer_2" data-name="Layer 2" xmlns="http://www.w3.org/2000/svg" viewBox="0 0 570.82 318.22">
  <defs>
    <style>
      .cls-1 {
        fill: #ffa704;
      }

      .cls-2 {
        fill: #06f;
      }
    </style>
  </defs>
  <g id="Layer_1-2" data-name="Layer 1">
    <g>
      <path class="cls-2" d="m314.73,262.6c-15.36,0-27.81,12.45-27.81,27.81s12.45,27.81,27.81,27.81,27.81-12.45,27.81-27.81-12.45-27.81-27.81-27.81Z"/>
      <path class="cls-1" d="m413.59,264.82c-12.35,0-22.36,10.01-22.36,22.36s10.01,22.36,22.36,22.36,22.36-10.01,22.36-22.36-10.01-22.36-22.36-22.36Z"/>
      <path class="cls-1" d="m263.51,248.27c-21.25,8.31-37.59,17.86-50.73,25.53-19.48,11.38-32.35,18.89-48.95,17.03C126.28,286.62,71.24,232.74,22.25,0L0,4.68c42.16,200.3,94.92,301.3,161.3,308.75,2.58.29,5.1.43,7.55.43,20.43,0,36.78-9.55,55.4-20.42,13.1-7.65,27.95-16.32,47.54-23.98,71.06-27.78,155.6-22.59,251.27,15.43l8.4-21.13c-101.2-40.22-191.35-45.43-267.95-15.48Z"/>
      <g>
        <path class="cls-2" d="m516.08,72.99c.39.41.91.27,1.38.28,8.69.33,17.27,1.38,25.48,4.39,7.86,2.88,15.08,6.87,20.95,12.99,2.39,2.49,4.49,5.2,6.27,8.14.94,1.56.88,3.23-.2,4.7-4.97,6.84-9.98,13.66-15,20.47-1.47,2-2.9,2.01-4.61.15-6.81-7.4-14.98-12.71-24.49-15.96-5.04-1.73-10.2-2.07-15.48-1.4-3.06.39-6.12.77-9,1.94-1.45.59-2.79,1.38-4.07,2.28-1.89,1.35-2.56,3.25-2.79,5.44-.45,4.33,1.91,7.01,5.25,9.17,3.36,2.17,7.1,3.45,10.83,4.76,7.36,2.58,14.95,4.44,22.31,7.02,6.41,2.25,12.62,4.85,18.15,8.88,8.65,6.29,14.12,14.55,15.69,25.23.34,2.33.42,4.68.5,7.03.33,9.5-1.76,18.48-6.24,26.78-6.77,12.56-17.19,20.45-31.31,23.22-4.06.8-8.17,1.19-12.29,1.03-6.74-.25-13.34-1.45-19.79-3.43-6.09-1.87-12-4.14-17.33-7.7-5.8-3.88-10.53-8.89-14.86-14.3-1.84-2.3-3.71-4.58-5.31-7.06-1.33-2.07-1.15-3.7.56-5.42,5.48-5.51,10.96-11.02,16.44-16.52,1.74-1.75,3.05-1.65,4.52.36,4.5,6.14,9.79,11.43,16.42,15.26,4.76,2.75,9.92,4.19,15.37,4.74,4.49.45,8.92.24,13.3-.87,2.55-.64,4.88-1.76,6.98-3.37,1.93-1.48,2.97-3.42,3.27-5.81.42-3.38-.6-6.1-3.43-8.15-2.32-1.69-4.81-3.03-7.48-4.05-5.96-2.28-12.15-3.85-18.2-5.86-7.91-2.62-15.7-5.61-22.93-9.77-8.55-4.92-15.17-11.73-18.81-21.09-1.68-4.32-2.51-8.83-2.9-13.45-.19-2.32-.2-4.64-.16-6.96.2-10.52,3.83-19.68,11.02-27.4,6.19-6.64,13.91-10.68,22.55-13.12,5.15-1.46,10.41-2.28,15.78-2.32.33,0,.71.08.94-.28h2.71Z"/>
        <path class="cls-2" d="m114.26,189.33c.03-13.45,3.94-25.79,10.85-37.22,10.7-17.71,26.16-29.18,45.98-34.93,5.36-1.55,10.81-2.19,16.34-1.79,7.14.52,13.74,2.86,19.86,6.55,1.1.66,2.16,1.38,3.23,2.09,1.5.99,3.05.64,3.94-.93.43-.77.67-1.59.48-2.49-.04-.2-.07-.41-.08-.62-.08-2.73-.13-5.47-.23-8.2-.06-1.52.58-2.58,1.86-3.34,5.76-3.4,11.53-6.79,17.38-10.05,2.91-1.62,5.82-3.24,8.75-4.82,2.17-1.17,3.56-.35,3.45,2.12-.28,6.57-.54,13.14-.66,19.72-.03,1.79-.12,3.6-.16,5.4-.37,16.74-.25,33.49-.14,50.24.03,5.23-.03,10.47.21,15.69.17,3.78-.05,7.56.19,11.33.23,3.6-.03,7.21.21,10.8.23,3.33-.03,6.66.2,9.97.24,3.47.07,6.93.19,10.39.03.93.3,1.83,0,2.78-.34,1.07-.93,1.84-2.05,2.15-5.57,1.55-11.14,3.11-16.72,4.65-1.42.39-2.33-.17-2.52-1.64-.33-2.47-.56-4.95-.82-7.42-.15-1.44-.26-2.89-.46-4.33-.14-1-.7-1.77-1.72-2-1.08-.25-1.92.28-2.48,1.14-1.48,2.27-2.98,4.51-4.65,6.64-8.91,11.34-19.93,19.58-34.1,23.2-5.26,1.34-10.61,1.44-16,1.01-5.95-.48-11.63-1.93-16.79-4.99-12.54-7.43-21.9-17.64-27.33-31.29-2.92-7.34-4.81-14.94-5.84-22.77-.31-2.34-.44-4.68-.39-7.05Zm24.54,5.28c-.02,2.15.17,4.24.45,6.34.91,7.01,3.18,13.49,7.57,19.08,6,7.63,13.8,11.87,23.61,12,3.5.04,6.96-.65,10.3-1.77,12.12-4.03,20.08-12.48,25.12-23.91,3.01-6.82,4.13-14.01,3.64-21.48-.27-4.07-.82-8.06-2.15-11.91-3.05-8.84-8.59-15.43-17.45-18.92-5.09-2.01-10.37-2.28-15.74-1.46-5.98.91-11.62,2.81-16.55,6.33-12.24,8.73-18.4,20.72-18.77,35.7Z"/>
        <path class="cls-2" d="m288.87,88.06c.46-.08.82.31,1.16.71,3.82,4.4,7.66,8.78,11.46,13.2,7.42,8.62,14.83,17.26,22.25,25.88,1.18,1.37,1.83,1.28,2.71-.3,8.13-14.56,16.39-29.04,24.98-43.33.49-.82,1.1-1.21,2.04-1.36,5.3-.84,10.58-1.74,15.87-2.59,5.5-.88,11-1.74,16.51-2.59,4.24-.66,8.48-1.28,12.72-1.94.6-.09,1.19-.3,1.58.34.44.71-.13,1.18-.5,1.65-4.08,5.13-8.19,10.23-12.25,15.38-11.32,14.34-22.46,28.83-33.48,43.41-3.12,4.12-6.25,8.23-9.37,12.35-1.01,1.33-.99,1.7.1,2.98,9.39,11.13,18.5,22.5,27.43,34.01,8.31,10.72,16.46,21.55,24.51,32.46.19.25.38.5.53.77.21.39.26.81-.02,1.18-.25.33-.62.37-1.03.34-3.11-.2-6.21-.41-9.32-.57-5.22-.28-10.44-.55-15.66-.79-1.59-.07-3.19-.02-4.79-.06-.86-.02-1.72-.13-2.59-.19-.6-.04-.89-.52-1.19-.92-4.86-6.42-9.81-12.75-14.83-19.04-6.84-8.57-13.84-16.99-21.05-25.24-1.11-1.27-1.82-1.18-2.66.34-7.39,13.27-14.62,26.61-21.86,39.96-1.49,2.74-3,5.47-4.47,8.22-.39.73-.89,1.14-1.72,1.33-12.25,2.88-24.33,6.35-36.31,10.19-.47.15-.98.5-1.42-.05-.45-.57-.05-1.06.21-1.52,3.88-6.77,7.74-13.54,11.66-20.29,9.16-15.77,18.52-31.42,28.23-46.85,2.36-3.75,4.76-7.49,7.16-11.23,1.01-1.57,1-1.82-.26-3.13-10.87-11.39-21.75-22.77-32.61-34.18-6.45-6.79-12.86-13.62-19.28-20.44-.39-.41-.97-.79-.71-1.5.26-.72.9-.85,1.58-.97,6.35-1.07,12.68-2.19,19.03-3.24,5.02-.82,10.05-1.56,15.08-2.33.14-.02.28-.02.56-.04Z"/>
        <path class="cls-1" d="m428.23,76.81c3.35,0,6.48.04,9.6-.02,1.45-.02,2.9-.22,4.36-.17,2.87.1,4.7,2.41,4.33,5.27-.39,3.05-.61,6.12-.92,9.18-.32,3.27-.66,6.53-.98,9.8-.3,3.1-.59,6.19-.89,9.29-.32,3.3-.65,6.6-.97,9.91-.31,3.17-.6,6.33-.9,9.5-.32,3.37-.66,6.74-.98,10.11-.24,2.58-.45,5.17-.69,7.75-.31,3.27-.65,6.53-.97,9.8-.24,2.48-.46,4.96-.69,7.44-.33,3.44-.66,6.88-.98,10.32-.24,2.58-.45,5.17-.69,7.75-.32,3.37-.66,6.74-.98,10.11-.24,2.51-.45,5.03-.68,7.54-.32,3.44-.65,6.88-.98,10.32-.09,1-.22,2-.26,3-.14,3.68-1.87,5.07-5.51,4.62-3.05-.38-6.13-.55-9.2-.81-1.76-.15-3.52-.23-5.27-.45-1.29-.16-2.17-1.01-2.81-2.11-.52-.89-.7-1.88-.75-2.89-.23-4.7-.42-9.4-.66-14.1-.25-4.94-.55-9.88-.83-14.81-.27-4.63-.55-9.25-.83-13.88-.28-4.59-.56-9.18-.84-13.77-.27-4.42-.55-8.84-.82-13.25-.28-4.56-.56-9.11-.84-13.67-.28-4.49-.53-8.98-.83-13.46-.33-4.8-.6-9.6-.85-14.4-.2-3.63-.43-7.25-.62-10.88-.14-2.76-.39-5.52-.4-8.29-.01-2.75,1.72-4.5,4.46-4.51,3.19-.01,6.39.13,9.57-.07,3.85-.24,7.7,0,11.31-.17Z"/>
      </g>
    </g>
  </g>
</svg>